<?xml version="1.0" encoding="utf-8"?>
<!-- Generator: Adobe Illustrator 19.2.0, SVG Export Plug-In . SVG Version: 6.00 Build 0)  -->
<svg version="1.1" id="Layer_1" xmlns="http://www.w3.org/2000/svg" xmlns:xlink="http://www.w3.org/1999/xlink" x="0px" y="0px"
	 viewBox="0 0 8 9.5" style="enable-background:new 0 0 8 9.5;" xml:space="preserve">
<path fill="#FFF" d="M7.7,1.8L4.8,4.7C4.6,4.9,4.3,5,4,5S3.4,4.9,3.2,4.7L0.3,1.8C0.1,1.6,0,1.3,0,1.1c0-0.3,0.1-0.5,0.3-0.8
	C0.5,0.1,0.8,0,1.1,0s0.6,0.1,0.8,0.3L4,2.4l2.1-2.1C6.4,0.1,6.6,0,6.9,0s0.6,0.1,0.8,0.3C7.9,0.5,8,0.8,8,1.1S7.9,1.6,7.7,1.8z"/>
<path fill="#FFF" d="M7.7,6.3L4.8,9.2C4.6,9.4,4.3,9.5,4,9.5S3.4,9.4,3.2,9.2L0.3,6.3C0.1,6.1,0,5.8,0,5.6c0-0.3,0.1-0.5,0.3-0.8
	c0.2-0.2,0.5-0.3,0.8-0.3s0.6,0.1,0.8,0.3L4,6.9l2.1-2.1c0.3-0.2,0.5-0.3,0.8-0.3s0.6,0.1,0.8,0.3C7.9,5,8,5.3,8,5.6
	C8,5.9,7.9,6.1,7.7,6.3z"/>
</svg>
