<svg xmlns="http://www.w3.org/2000/svg" width="40" height="40" viewBox="0 0 40 40"><g fill="#A2AFBA"><path d="M20 40c-11.028 0-20-8.972-20-20s8.972-20 20-20 20 8.972 20 20-8.972 20-20 20zm0-37.037c-9.394 0-17.037 7.643-17.037 17.037s7.643 17.037 17.037 17.037 17.037-7.643 17.037-17.037-7.643-17.037-17.037-17.037zm3.703 26.773c-.419 0-.799-.287-.9-.712-.204-.861-1.334-1.79-2.803-1.79-1.563 0-2.71 1.01-2.783 1.677-.056.509-.515.873-1.021.82-.509-.056-.875-.513-.82-1.021.197-1.804 2.315-3.328 4.624-3.328 2.495 0 4.235 1.656 4.605 3.215.118.497-.19.997-.687 1.115l-.215.024z"/><circle cx="14.444" cy="14.96" r="1.852"/><circle cx="25.556" cy="14.96" r="1.852"/></g></svg>
