<?xml version="1.0" encoding="utf-8"?>
<!-- Generator: Adobe Illustrator 15.0.0, SVG Export Plug-In  -->
<!DOCTYPE svg PUBLIC "-//W3C//DTD SVG 1.1//EN" "http://www.w3.org/Graphics/SVG/1.1/DTD/svg11.dtd" [
	<!ENTITY ns_flows "http://ns.adobe.com/Flows/1.0/">
]>
<svg version="1.1"
	 xmlns="http://www.w3.org/2000/svg" xmlns:xlink="http://www.w3.org/1999/xlink" xmlns:a="http://ns.adobe.com/AdobeSVGViewerExtensions/3.0/"
	 x="0px" y="0px" width="413px" height="413px" viewBox="100 99.5 413 413"
	 overflow="visible" enable-background="new 100 99.5 413 413" xml:space="preserve">
<defs>
</defs>
<rect fill="none" width="612" height="612"/>
<path fill="#697C8E" d="M462.624,129.094H382.5l-0.804-0.019c-0.803-0.067-1.597-0.163-2.391-0.344
	c-1.826-0.411-3.576-1.195-5.105-2.286c-3.988-2.821-6.293-7.621-6.024-12.498c0.076-1.339,0.344-2.668,0.784-3.93
	c0.535-1.521,1.319-2.955,2.323-4.208c1.176-1.473,2.63-2.706,4.274-3.615c1.415-0.774,2.955-1.319,4.542-1.587
	c0.708-0.115,0.88-0.115,1.597-0.182c38.623-1.081,77.304-1.081,115.927-0.009h0.162l0.115,0.009h0.152
	c0.135,0.019,0.269,0.029,0.402,0.039l0.401,0.028c0.938,0.144,1.186,0.153,2.104,0.402c0.307,0.086,0.603,0.172,0.899,0.268
	l0.124,0.048l0.277,0.105l0.249,0.086l0.229,0.095l0.143,0.067c0.698,0.296,1.358,0.641,1.999,1.042
	c1.215,0.765,2.305,1.702,3.241,2.792c0.45,0.526,0.861,1.081,1.234,1.664l0.028,0.048c0.431,0.679,0.804,1.396,1.119,2.152
	c0.373,0.908,0.631,1.826,0.812,2.773l0.028,0.144c0.039,0.229,0.077,0.449,0.105,0.669c0.048,0.363,0.086,0.727,0.124,1.1
	c1.081,38.499,0.02,77.036,0.02,115.553c-0.02,0.717-0.01,0.899-0.086,1.606c-0.182,1.597-0.641,3.165-1.339,4.619
	c-0.812,1.693-1.96,3.223-3.356,4.466c-1.004,0.899-2.133,1.654-3.337,2.228c-4.657,2.247-10.309,1.769-14.526-1.224
	c-1.31-0.927-2.467-2.084-3.395-3.395c-1.243-1.75-2.084-3.777-2.447-5.9c-0.135-0.794-0.182-1.588-0.201-2.4v-80.124
	L297.021,335.271c-0.698,0.641-0.861,0.832-1.626,1.396c-1.157,0.851-2.429,1.521-3.787,1.999c-1.683,0.593-3.481,0.86-5.269,0.793
	c-4.695-0.172-9.113-2.725-11.609-6.703c-0.765-1.214-1.339-2.534-1.711-3.921c-0.373-1.377-0.536-2.821-0.478-4.246
	c0.095-2.505,0.851-4.972,2.189-7.095c0.574-0.918,1.262-1.721,1.999-2.515L462.624,129.094L462.624,129.094z"/>
<path fill="#697C8E" d="M288.233,138.723c1.195,0.172,1.511,0.172,2.677,0.517c2.63,0.765,5.011,2.295,6.799,4.36
	c0.899,1.033,1.645,2.19,2.209,3.433c0.574,1.243,0.956,2.572,1.157,3.92c0.583,4.083-0.65,8.31-3.356,11.437
	c-1.195,1.377-2.648,2.524-4.265,3.356c-1.616,0.832-3.395,1.357-5.211,1.53c-0.45,0.048-0.909,0.048-1.358,0.067
	c-10.06,0-20.12,0.01-30.179,0.048c-16.247,0.096-32.503,0.22-48.731,1.109c-9.017,0.487-18.044,1.205-26.976,2.591
	c-2.419,0.373-4.839,0.803-7.239,1.3c-1.635,0.344-3.261,0.717-4.877,1.138c-7.478,1.932-15.042,4.781-20.913,9.964
	c-1.109,0.976-2.142,2.037-3.108,3.166c-2.926,3.414-5.087,7.42-6.742,11.58c-1.999,5.011-3.337,10.28-4.351,15.568
	c-1.444,7.468-2.286,15.042-2.878,22.605c-1.023,12.823-1.368,25.685-1.568,38.546c-0.172,11.523-0.21,23.055-0.22,34.588
	c-0.01,10.385-0.01,20.77,0,31.154c0.009,14.593,0.067,29.194,0.43,43.787c0.325,12.775,0.841,25.589,2.295,38.298
	c0.382,3.347,0.841,6.674,1.396,9.992c1.033,6.082,2.4,12.164,4.581,17.949c1.798,4.771,4.198,9.381,7.602,13.215
	c6.694,7.555,16.572,11.131,26.154,13.359c1.989,0.459,3.997,0.87,6.005,1.233c2.544,0.459,5.106,0.851,7.669,1.186
	c13.072,1.74,26.297,2.314,39.464,2.688c15.539,0.43,31.097,0.478,46.646,0.487c10.347,0.01,20.703,0.01,31.059,0
	c12.546-0.01,25.083-0.058,37.629-0.296c12.564-0.239,25.14-0.632,37.666-1.741c7.363-0.649,14.736-1.539,21.975-3.06
	c6.12-1.291,12.23-3.012,17.835-5.833c3.317-1.664,6.436-3.749,9.112-6.34c6.665-6.445,10.003-15.491,12.145-24.327
	c0.401-1.664,0.766-3.347,1.1-5.03c0.488-2.467,0.899-4.953,1.263-7.449c0.507-3.499,0.908-7.019,1.253-10.537
	c1.09-11.256,1.549-22.577,1.836-33.89c0.497-19.747,0.43-39.513,0.439-59.278l0.067-1.358c0.066-0.449,0.104-0.908,0.19-1.357
	c0.345-1.789,1.033-3.5,2.027-5.04c0.736-1.147,1.636-2.19,2.668-3.079c3.127-2.706,7.354-3.94,11.438-3.356
	c1.357,0.201,2.677,0.583,3.92,1.157c1.654,0.755,3.165,1.827,4.418,3.146c1.894,1.989,3.185,4.504,3.701,7.191
	c0.229,1.195,0.2,1.501,0.258,2.716c-0.01,10.079-0.01,20.158-0.058,30.236c-0.057,9.917-0.144,19.833-0.392,29.749
	c-0.172,6.771-0.411,13.54-0.794,20.301c-0.287,5.222-0.659,10.433-1.167,15.635c-0.306,3.204-0.669,6.397-1.1,9.592
	c-0.306,2.266-0.641,4.532-1.022,6.789c-2.4,14.152-6.483,28.43-14.898,40.248c-1.272,1.798-2.64,3.52-4.093,5.164
	c-2.276,2.572-4.781,4.963-7.459,7.114c-3.949,3.175-8.281,5.853-12.833,8.071c-10.231,4.981-21.458,7.669-32.656,9.419
	c-8.08,1.263-16.236,2.037-24.394,2.582c-8.539,0.583-17.107,0.898-25.666,1.109c-12.307,0.315-24.623,0.392-36.93,0.43
	c-12.862,0.039-25.714,0.029-38.575,0.01c-14.784-0.01-29.577-0.058-44.361-0.421c-13.607-0.334-27.243-0.889-40.774-2.419
	c-3.098-0.354-6.196-0.756-9.275-1.233c-14.889-2.314-30.036-6.34-42.486-15.166c-1.788-1.263-3.519-2.63-5.164-4.074
	c-2.353-2.075-4.533-4.322-6.541-6.731c-1.406-1.684-2.716-3.452-3.939-5.278c-7.717-11.514-11.533-25.159-13.828-38.69
	c-0.507-3.041-0.947-6.082-1.329-9.142c-0.402-3.242-0.736-6.503-1.023-9.754c-0.478-5.298-0.822-10.595-1.081-15.902
	c-0.401-7.937-0.631-15.874-0.784-23.811c-0.191-10.261-0.258-20.512-0.287-30.772c-0.048-12.891-0.038-25.781-0.019-38.671
	c0.009-13.789,0.057-27.578,0.344-41.368c0.163-7.803,0.411-15.615,0.832-23.409c0.277-5.221,0.641-10.433,1.138-15.635
	c0.373-3.978,0.832-7.946,1.396-11.896c0.316-2.237,0.669-4.465,1.071-6.693c2.41-13.388,6.445-26.842,14.392-38.059
	c1.271-1.789,2.629-3.51,4.083-5.154c2.276-2.582,4.772-4.963,7.459-7.124c4.188-3.376,8.816-6.178,13.684-8.473
	c9.324-4.379,19.431-6.914,29.558-8.606c7.104-1.186,14.267-1.97,21.439-2.543c7.296-0.583,14.611-0.947,21.937-1.205
	c10.595-0.373,21.2-0.526,31.805-0.603c12.441-0.105,24.882-0.086,37.313-0.096C287.325,138.675,287.774,138.694,288.233,138.723
	L288.233,138.723z"/>
<rect id="_x3C_Slice_x3E__1_" x="99.5" y="99" fill="none" width="413" height="413"/>
</svg>
