<?xml version="1.0" encoding="utf-8"?>
<!-- Generator: Adobe Illustrator 19.2.0, SVG Export Plug-In . SVG Version: 6.00 Build 0)  -->
<svg version="1.1" id="Layer_1" xmlns="http://www.w3.org/2000/svg" xmlns:xlink="http://www.w3.org/1999/xlink" x="0px" y="0px"
   viewBox="0 0 958.7 64" enable-background="new 0 0 958.7 64" xml:space="preserve">
<g opacity="0.25" enable-background="new    ">
  <path d="M449.3,7.7c-2.4-1.6-5.2-2.5-8.4-2.5c-2.8,0-5.1,0.5-7.1,1.6c-2,1-3.6,2.4-4.9,4.2c-1.3,1.8-2.2,3.8-2.8,6
    c-0.6,2.3-0.9,4.6-0.9,7c0,2.6,0.3,5.1,0.9,7.5c0.6,2.4,1.5,4.4,2.8,6.2c1.3,1.8,2.9,3.2,4.9,4.2c2,1,4.4,1.6,7.2,1.6
    c2,0,3.8-0.3,5.4-1c1.6-0.7,2.9-1.6,4.1-2.8c1.1-1.2,2-2.6,2.7-4.3c0.7-1.6,1-3.4,1.2-5.3h6.2c-0.6,5.9-2.6,10.4-6,13.7
    c-3.4,3.3-8.1,4.9-14,4.9c-3.6,0-6.7-0.6-9.4-1.9c-2.7-1.2-4.9-2.9-6.7-5.1c-1.8-2.2-3.1-4.7-4-7.7c-0.9-2.9-1.3-6.1-1.3-9.5
    s0.5-6.6,1.4-9.5c1-3,2.4-5.6,4.2-7.8c1.8-2.2,4.1-4,6.9-5.2c2.8-1.3,5.9-1.9,9.5-1.9c2.4,0,4.7,0.3,6.9,1c2.2,0.7,4.1,1.6,5.8,2.9
    c1.7,1.3,3.1,2.8,4.2,4.7c1.1,1.9,1.9,4.1,2.2,6.5h-6.2C453.2,11.8,451.6,9.3,449.3,7.7z"/>
  <path d="M473.1,1.1v46.4h-5.5V1.1H473.1z"/>
  <path d="M480.9,23.8c0.7-2.1,1.7-4,3.1-5.6c1.4-1.6,3.1-2.8,5.1-3.7c2-0.9,4.4-1.4,7-1.4c2.7,0,5,0.5,7.1,1.4
    c2,0.9,3.7,2.2,5.1,3.7s2.4,3.4,3.1,5.6s1,4.5,1,6.9s-0.3,4.8-1,6.9c-0.7,2.1-1.7,4-3.1,5.6c-1.4,1.6-3.1,2.8-5.1,3.7
    c-2,0.9-4.4,1.3-7.1,1.3c-2.6,0-5-0.4-7-1.3c-2-0.9-3.8-2.1-5.1-3.7c-1.4-1.6-2.4-3.4-3.1-5.6c-0.7-2.1-1-4.4-1-6.9
    S480.2,26,480.9,23.8z M486.5,36.2c0.5,1.6,1.3,2.9,2.2,4c1,1.1,2.1,1.9,3.3,2.4c1.3,0.6,2.6,0.8,4.1,0.8s2.8-0.3,4.1-0.8
    c1.3-0.6,2.4-1.4,3.3-2.4c1-1.1,1.7-2.4,2.2-4c0.5-1.6,0.8-3.4,0.8-5.4c0-2-0.3-3.8-0.8-5.4c-0.5-1.6-1.3-2.9-2.2-4
    c-1-1.1-2.1-1.9-3.3-2.5c-1.3-0.6-2.6-0.8-4.1-0.8s-2.8,0.3-4.1,0.8c-1.3,0.6-2.4,1.4-3.3,2.5c-1,1.1-1.7,2.4-2.2,4
    c-0.5,1.6-0.8,3.4-0.8,5.4C485.7,32.8,486,34.6,486.5,36.2z"/>
  <path d="M541.6,47.5v-5.3h-0.1c-1.2,2.1-2.7,3.6-4.5,4.6c-1.8,1-4,1.5-6.4,1.5c-2.2,0-4.1-0.3-5.5-0.9c-1.5-0.6-2.7-1.4-3.6-2.5
    c-0.9-1.1-1.6-2.4-1.9-3.9c-0.4-1.5-0.6-3.2-0.6-5V13.9h5.5v22.8c0,2.1,0.6,3.7,1.8,4.9c1.2,1.2,2.9,1.8,5,1.8
    c1.7,0,3.2-0.3,4.4-0.8c1.2-0.5,2.3-1.3,3.1-2.2c0.8-1,1.4-2.1,1.9-3.3c0.4-1.3,0.6-2.7,0.6-4.2v-19h5.5v33.6H541.6z"/>
  <path d="M579.7,47.5V43h-0.1c-0.9,1.9-2.3,3.2-4.3,4c-2,0.8-4.1,1.2-6.4,1.2c-2.6,0-4.9-0.5-6.8-1.4c-1.9-1-3.5-2.2-4.8-3.8
    c-1.3-1.6-2.2-3.5-2.9-5.6c-0.7-2.1-1-4.4-1-6.8s0.3-4.6,0.9-6.8c0.6-2.1,1.6-4,2.9-5.6c1.3-1.6,2.9-2.8,4.8-3.8
    c1.9-0.9,4.2-1.4,6.7-1.4c0.9,0,1.8,0.1,2.8,0.3s2,0.5,3,0.9c1,0.4,1.9,1,2.8,1.6c0.9,0.7,1.6,1.5,2.2,2.5h0.1V1.1h5.5v46.4H579.7z
     M559.8,35.6c0.4,1.5,1,2.8,1.9,4c0.8,1.2,1.9,2.1,3.3,2.8c1.3,0.7,2.9,1,4.6,1c1.9,0,3.4-0.4,4.7-1.1c1.3-0.7,2.4-1.7,3.2-2.9
    s1.4-2.5,1.8-4.1c0.4-1.5,0.6-3.1,0.6-4.6c0-1.6-0.2-3.2-0.6-4.8c-0.4-1.5-1-2.9-1.9-4.1c-0.8-1.2-1.9-2.1-3.3-2.8
    c-1.3-0.7-3-1.1-4.9-1.1c-1.9,0-3.4,0.4-4.7,1.1c-1.3,0.7-2.3,1.7-3.1,2.9s-1.3,2.6-1.7,4.2s-0.5,3.2-0.5,4.8
    C559.2,32.6,559.4,34.1,559.8,35.6z"/>
  <path d="M640.8,7.7c-2.4-1.6-5.2-2.5-8.4-2.5c-2.8,0-5.1,0.5-7.1,1.6c-2,1-3.6,2.4-4.9,4.2c-1.3,1.8-2.2,3.8-2.8,6
    c-0.6,2.3-0.9,4.6-0.9,7c0,2.6,0.3,5.1,0.9,7.5c0.6,2.4,1.5,4.4,2.8,6.2c1.3,1.8,2.9,3.2,4.9,4.2c2,1,4.4,1.6,7.2,1.6
    c2,0,3.8-0.3,5.4-1c1.6-0.7,2.9-1.6,4.1-2.8c1.1-1.2,2-2.6,2.7-4.3c0.6-1.6,1-3.4,1.2-5.3h6.2c-0.6,5.9-2.6,10.4-6,13.7
    c-3.4,3.3-8.1,4.9-14,4.9c-3.6,0-6.7-0.6-9.4-1.9c-2.7-1.2-4.9-2.9-6.7-5.1c-1.8-2.2-3.1-4.7-4-7.7c-0.9-2.9-1.3-6.1-1.3-9.5
    s0.5-6.6,1.4-9.5c1-3,2.4-5.6,4.2-7.8s4.1-4,6.9-5.2c2.8-1.3,5.9-1.9,9.5-1.9c2.4,0,4.7,0.3,6.9,1c2.2,0.7,4.1,1.6,5.8,2.9
    c1.7,1.3,3.1,2.8,4.2,4.7c1.1,1.9,1.9,4.1,2.2,6.5h-6.2C644.6,11.8,643.1,9.3,640.8,7.7z"/>
  <path d="M658,23.8c0.7-2.1,1.7-4,3.1-5.6c1.4-1.6,3.1-2.8,5.1-3.7c2-0.9,4.4-1.4,7-1.4c2.7,0,5,0.5,7.1,1.4c2,0.9,3.7,2.2,5.1,3.7
    c1.4,1.6,2.4,3.4,3.1,5.6c0.7,2.1,1,4.5,1,6.9s-0.3,4.8-1,6.9c-0.7,2.1-1.7,4-3.1,5.6c-1.4,1.6-3.1,2.8-5.1,3.7
    c-2,0.9-4.4,1.3-7.1,1.3c-2.6,0-5-0.4-7-1.3c-2-0.9-3.7-2.1-5.1-3.7c-1.4-1.6-2.4-3.4-3.1-5.6c-0.7-2.1-1-4.4-1-6.9
    S657.3,26,658,23.8z M663.6,36.2c0.5,1.6,1.3,2.9,2.2,4c1,1.1,2.1,1.9,3.3,2.4c1.3,0.6,2.6,0.8,4.1,0.8c1.4,0,2.8-0.3,4.1-0.8
    c1.3-0.6,2.4-1.4,3.3-2.4c1-1.1,1.7-2.4,2.2-4c0.5-1.6,0.8-3.4,0.8-5.4c0-2-0.3-3.8-0.8-5.4c-0.5-1.6-1.3-2.9-2.2-4
    c-1-1.1-2.1-1.9-3.3-2.5c-1.3-0.6-2.6-0.8-4.1-0.8c-1.4,0-2.8,0.3-4.1,0.8c-1.3,0.6-2.4,1.4-3.3,2.5c-1,1.1-1.7,2.4-2.2,4
    c-0.5,1.6-0.8,3.4-0.8,5.4C662.8,32.8,663,34.6,663.6,36.2z"/>
  <path d="M701.3,13.9v4.9h0.1c2.5-3.8,6.1-5.7,10.9-5.7c2.1,0,4,0.4,5.7,1.3c1.7,0.9,2.9,2.3,3.6,4.4c1.1-1.8,2.6-3.2,4.5-4.2
    s3.9-1.5,6.1-1.5c1.7,0,3.2,0.2,4.6,0.6c1.4,0.4,2.5,0.9,3.5,1.7c1,0.8,1.7,1.8,2.3,3c0.5,1.2,0.8,2.7,0.8,4.5v24.6h-5.5v-22
    c0-1-0.1-2-0.3-2.9c-0.2-0.9-0.5-1.7-1-2.4c-0.5-0.7-1.1-1.2-2-1.6c-0.8-0.4-1.9-0.6-3.3-0.6c-2.7,0-4.9,0.8-6.4,2.3
    c-1.6,1.6-2.3,3.6-2.3,6.2v20.9h-5.5v-22c0-1.1-0.1-2.1-0.3-3c-0.2-0.9-0.5-1.7-1-2.4c-0.5-0.7-1.1-1.2-1.9-1.6
    c-0.8-0.4-1.8-0.6-3.1-0.6c-1.6,0-3,0.3-4.1,1c-1.1,0.7-2.1,1.4-2.8,2.3c-0.7,0.9-1.2,1.9-1.6,2.8c-0.3,1-0.5,1.8-0.5,2.4v20.9
    h-5.5V13.9H701.3z"/>
  <path d="M757.2,13.9v4.6h0.1c0.9-1.9,2.3-3.2,4.3-4.1c2-0.8,4.1-1.3,6.4-1.3c2.6,0,4.9,0.5,6.8,1.4c1.9,1,3.5,2.2,4.8,3.9
    c1.3,1.6,2.2,3.5,2.9,5.6c0.7,2.1,1,4.4,1,6.8c0,2.4-0.3,4.6-0.9,6.8c-0.6,2.1-1.6,4-2.9,5.6c-1.3,1.6-2.9,2.8-4.8,3.7
    c-1.9,0.9-4.2,1.4-6.7,1.4c-0.8,0-1.7-0.1-2.8-0.3c-1-0.2-2-0.5-3-0.8c-1-0.4-1.9-0.9-2.8-1.6c-0.9-0.7-1.6-1.5-2.2-2.5h-0.1v17.3
    h-5.5V13.9H757.2z M777.1,25.8c-0.4-1.5-1-2.8-1.9-4c-0.8-1.2-1.9-2.1-3.3-2.8c-1.3-0.7-2.9-1-4.6-1c-1.9,0-3.4,0.4-4.7,1.1
    c-1.3,0.7-2.4,1.7-3.2,2.9c-0.8,1.2-1.4,2.5-1.8,4.1c-0.4,1.5-0.6,3.1-0.6,4.6c0,1.6,0.2,3.2,0.6,4.8c0.4,1.5,1,2.9,1.9,4.1
    c0.8,1.2,1.9,2.1,3.3,2.8c1.3,0.7,3,1.1,4.9,1.1c1.9,0,3.5-0.4,4.8-1.1c1.3-0.7,2.3-1.7,3.1-2.9c0.8-1.2,1.3-2.6,1.7-4.2
    c0.3-1.6,0.5-3.2,0.5-4.8C777.7,28.9,777.5,27.3,777.1,25.8z"/>
  <path d="M819.9,47.4c-1,0.6-2.3,0.8-4,0.8c-1.4,0-2.6-0.4-3.4-1.2c-0.8-0.8-1.3-2.1-1.3-3.9c-1.5,1.8-3.3,3.1-5.3,3.9
    c-2,0.8-4.2,1.2-6.5,1.2c-1.5,0-3-0.2-4.3-0.5c-1.4-0.3-2.5-0.9-3.5-1.6s-1.8-1.7-2.4-2.9c-0.6-1.2-0.9-2.6-0.9-4.3
    c0-1.9,0.3-3.5,1-4.7c0.6-1.2,1.5-2.2,2.6-3c1.1-0.8,2.3-1.3,3.6-1.7c1.4-0.4,2.8-0.7,4.2-1c1.5-0.3,3-0.5,4.3-0.7
    c1.4-0.2,2.6-0.4,3.6-0.6c1-0.3,1.9-0.7,2.5-1.2c0.6-0.5,0.9-1.3,0.9-2.4c0-1.2-0.2-2.2-0.7-2.9c-0.5-0.7-1-1.3-1.8-1.7
    c-0.7-0.4-1.5-0.6-2.4-0.8c-0.9-0.1-1.8-0.2-2.6-0.2c-2.3,0-4.3,0.4-5.9,1.3c-1.6,0.9-2.4,2.6-2.5,5h-5.5c0.1-2.1,0.5-3.8,1.3-5.3
    c0.8-1.4,1.8-2.6,3.1-3.5c1.3-0.9,2.8-1.5,4.5-1.9c1.7-0.4,3.5-0.6,5.4-0.6c1.5,0,3,0.1,4.5,0.3c1.5,0.2,2.9,0.7,4.1,1.3
    c1.2,0.7,2.2,1.6,2.9,2.8c0.7,1.2,1.1,2.8,1.1,4.7v17.3c0,1.3,0.1,2.2,0.2,2.9c0.2,0.6,0.7,0.9,1.5,0.9c0.5,0,1-0.1,1.7-0.3V47.4z
     M810.9,30.2c-0.7,0.5-1.6,0.9-2.7,1.1c-1.1,0.2-2.3,0.4-3.5,0.6c-1.2,0.2-2.5,0.3-3.7,0.5c-1.3,0.2-2.4,0.5-3.4,0.9
    c-1,0.4-1.8,1-2.4,1.8c-0.6,0.8-0.9,1.9-0.9,3.3c0,0.9,0.2,1.7,0.6,2.3c0.4,0.6,0.8,1.1,1.4,1.5c0.6,0.4,1.3,0.7,2,0.8
    c0.8,0.2,1.6,0.3,2.5,0.3c1.8,0,3.4-0.2,4.7-0.7c1.3-0.5,2.4-1.1,3.2-1.9c0.8-0.8,1.4-1.6,1.8-2.5c0.4-0.9,0.6-1.7,0.6-2.5V30.2z"
    />
  <path d="M830,13.9V21h0.1c1.3-2.7,3-4.7,4.9-6c2-1.3,4.4-1.9,7.4-1.8V19c-2.2,0-4.1,0.3-5.7,0.9c-1.6,0.6-2.8,1.5-3.8,2.7
    c-1,1.2-1.6,2.6-2.1,4.3c-0.4,1.7-0.7,3.6-0.7,5.8v15h-5.5V13.9H830z"/>
  <path d="M847,7.9V1.1h5.5v6.8H847z M852.5,13.9v33.6H847V13.9H852.5z"/>
  <path d="M865.3,40c0.5,0.8,1.2,1.5,2,2c0.8,0.5,1.8,0.9,2.9,1.1c1.1,0.2,2.2,0.3,3.3,0.3c0.9,0,1.8-0.1,2.7-0.2
    c1-0.1,1.8-0.4,2.6-0.7c0.8-0.3,1.5-0.9,2-1.5c0.5-0.7,0.8-1.5,0.8-2.6c0-1.4-0.5-2.5-1.6-3.3c-1.1-0.7-2.4-1.3-4.1-1.8
    c-1.6-0.5-3.4-0.9-5.3-1.2c-1.9-0.4-3.7-0.9-5.3-1.6c-1.6-0.7-3-1.6-4.1-2.8c-1.1-1.2-1.6-2.9-1.6-5.1c0-1.7,0.4-3.1,1.1-4.4
    c0.8-1.2,1.7-2.2,2.9-3c1.2-0.8,2.5-1.3,4-1.7c1.5-0.4,3-0.6,4.5-0.6c1.9,0,3.7,0.2,5.3,0.5c1.6,0.3,3,0.9,4.3,1.7
    c1.2,0.8,2.2,1.9,3,3.3c0.7,1.4,1.2,3.1,1.3,5.1h-5.5c-0.1-1.1-0.4-2-0.8-2.7c-0.5-0.7-1.1-1.3-1.8-1.7c-0.7-0.4-1.6-0.7-2.4-0.9
    c-0.9-0.2-1.8-0.3-2.7-0.3c-0.8,0-1.7,0.1-2.5,0.2c-0.8,0.1-1.6,0.4-2.3,0.7c-0.7,0.3-1.3,0.8-1.7,1.3c-0.4,0.5-0.6,1.2-0.6,2.1
    c0,1,0.3,1.7,1,2.4c0.7,0.6,1.5,1.1,2.6,1.6c1,0.4,2.2,0.8,3.5,1c1.3,0.3,2.6,0.6,3.9,0.9c1.4,0.3,2.7,0.7,4.1,1.1
    c1.3,0.4,2.5,1,3.5,1.7c1,0.7,1.8,1.6,2.5,2.7c0.6,1.1,0.9,2.4,0.9,4c0,2-0.4,3.7-1.3,5.1c-0.8,1.3-2,2.4-3.3,3.3
    c-1.4,0.8-2.9,1.4-4.6,1.7c-1.7,0.3-3.4,0.5-5.1,0.5c-1.9,0-3.6-0.2-5.3-0.6c-1.7-0.4-3.2-1-4.5-1.9c-1.3-0.9-2.3-2.1-3.1-3.5
    c-0.8-1.5-1.2-3.2-1.3-5.3h5.5C864.5,38.1,864.8,39.2,865.3,40z"/>
  <path d="M892.8,23.8c0.7-2.1,1.7-4,3.1-5.6c1.4-1.6,3.1-2.8,5.1-3.7c2-0.9,4.4-1.4,7-1.4c2.7,0,5,0.5,7.1,1.4
    c2,0.9,3.7,2.2,5.1,3.7c1.4,1.6,2.4,3.4,3.1,5.6c0.7,2.1,1,4.5,1,6.9s-0.3,4.8-1,6.9c-0.7,2.1-1.7,4-3.1,5.6
    c-1.4,1.6-3.1,2.8-5.1,3.7c-2,0.9-4.4,1.3-7.1,1.3c-2.6,0-5-0.4-7-1.3c-2-0.9-3.8-2.1-5.1-3.7c-1.4-1.6-2.4-3.4-3.1-5.6
    c-0.7-2.1-1-4.4-1-6.9S892.1,26,892.8,23.8z M898.4,36.2c0.5,1.6,1.3,2.9,2.2,4c1,1.1,2.1,1.9,3.3,2.4c1.3,0.6,2.6,0.8,4.1,0.8
    c1.4,0,2.8-0.3,4.1-0.8c1.3-0.6,2.4-1.4,3.3-2.4c1-1.1,1.7-2.4,2.2-4c0.5-1.6,0.8-3.4,0.8-5.4c0-2-0.3-3.8-0.8-5.4
    c-0.5-1.6-1.3-2.9-2.2-4c-1-1.1-2.1-1.9-3.3-2.5c-1.3-0.6-2.6-0.8-4.1-0.8c-1.4,0-2.8,0.3-4.1,0.8c-1.3,0.6-2.4,1.4-3.3,2.5
    c-1,1.1-1.7,2.4-2.2,4c-0.5,1.6-0.8,3.4-0.8,5.4C897.6,32.8,897.9,34.6,898.4,36.2z"/>
  <path d="M936.1,13.9v5.3h0.1c2.3-4.1,5.9-6.1,10.9-6.1c2.2,0,4.1,0.3,5.5,0.9c1.5,0.6,2.7,1.5,3.6,2.5c0.9,1.1,1.5,2.4,1.9,3.9
    c0.4,1.5,0.6,3.2,0.6,5v22.1h-5.5V24.8c0-2.1-0.6-3.7-1.8-4.9c-1.2-1.2-2.9-1.8-5-1.8c-1.7,0-3.2,0.3-4.4,0.8
    c-1.2,0.5-2.3,1.3-3.1,2.2c-0.8,1-1.4,2.1-1.9,3.3c-0.4,1.3-0.6,2.7-0.6,4.2v19h-5.5V13.9H936.1z"/>
</g>
<g>
  <path opacity="0.25" enable-background="new    " d="M269.1,0.2h-23.7c-2.3,0-4.2,0.8-5.7,2.3c-1.5,1.5-2.3,3.4-2.3,5.7v33.7
    c0,2.3,0.8,4.2,2.3,5.7c1.5,1.5,3.4,2.3,5.7,2.3h23.7c2.3,0,4.2-0.8,5.7-2.3c1.5-1.5,2.3-3.4,2.3-5.7v-2.3h-29.5V10.5h29.5V8.2
    c0-2.3-0.8-4.2-2.3-5.7C273.3,0.9,271.4,0.2,269.1,0.2z M313.9,0.2h-23.7c-2.3,0-4.2,0.8-5.7,2.3c-1.5,1.5-2.3,3.4-2.3,5.7v2.3
    h29.9v9.6h-21.4c-2.3,0-4.2,0.8-5.7,2.3c-1.5,1.5-2.3,3.4-2.3,5.7v13.8c0,2.3,0.8,4.2,2.3,5.7c1.5,1.5,3.4,2.3,5.7,2.3h23.3
    c2.3,0,4.2-0.8,5.7-2.3c1.5-1.5,2.3-3.4,2.3-5.7V8.2c0-2.3-0.8-4.2-2.3-5.7C318.1,0.9,316.2,0.2,313.9,0.2z M311.6,39.6h-19.1V30
    h19.1V39.6z M346.8,39.6h-10V8.2c0-2.3-0.8-4.2-2.3-5.7c-1.5-1.5-3.4-2.3-5.7-2.3h-2.3v41.7c0,2.3,0.8,4.2,2.3,5.7
    c1.5,1.5,3.4,2.3,5.7,2.3h13.8c2.3,0,4.2-0.8,5.7-2.3c1.5-1.5,2.3-3.4,2.3-5.7v-2.3H346.8z M393.5,30c2.3,0,4.2-0.8,5.7-2.3
    c1.5-1.5,2.3-3.4,2.3-5.7V8.2c0-2.3-0.8-4.2-2.3-5.7c-1.5-1.5-3.4-2.3-5.7-2.3h-23.7c-2.3,0-4.2,0.8-5.7,2.3
    c-1.5,1.5-2.3,3.4-2.3,5.7v33.7c0,2.3,0.8,4.2,2.3,5.7c1.5,1.5,3.4,2.3,5.7,2.3h23.7c2.3,0,4.2-0.8,5.7-2.3
    c1.5-1.5,2.3-3.4,2.3-5.7v-2.3h-29.9V30L393.5,30z M371.7,10.5h19.1v9.6h-19.1V10.5z M224.7,0.2h-23.7c-2.3,0-4.2,0.8-5.7,2.3
    c-1.5,1.5-2.3,3.4-2.3,5.7V22c0,2.3,0.8,4.2,2.3,5.7c1.5,1.5,3.4,2.3,5.7,2.3h21.4v9.6h-29.5v2.3c0,2.3,0.8,4.2,2.3,5.7
    c1.5,1.5,3.4,2.3,5.7,2.3h23.7c2.3,0,4.2-0.8,5.7-2.3c1.5-1.5,2.3-3.4,2.3-5.7V28.1c0-2.3-0.8-4.2-2.3-5.7
    c-1.5-1.5-3.4-2.3-5.7-2.3h-21.4v-9.6h29.9V8.2c0-2.3-0.8-4.2-2.3-5.7C228.9,0.9,226.6,0.2,224.7,0.2z M31.8,0.2H0v49.7h10.3v-9.9
    h19.1v1.9c0,2.3,0.8,4.2,2.3,5.7c1.9,1.5,3.8,2.3,5.7,2.3h2.3V38c0-2.3-0.8-4.2-2.3-5.7c-1.1-1.1-2.3-1.9-3.8-2.3
    c1.5-0.4,2.7-1.1,3.8-2.3c1.5-1.5,2.3-3.4,2.3-5.7V8.2c0-2.3-0.8-4.2-2.3-5.7C36,0.9,34.1,0.2,31.8,0.2z M29.5,29.6H10.3V10.5h19.1
    V29.6z M46.7,12h-2.3v37.9h10.3V20.4c0-2.3-0.8-4.2-2.3-5.7C50.9,12.8,49,12,46.7,12z M62,2.5c-1.5,1.5-2.3,3.4-2.3,5.7v33.7
    c0,2.3,0.8,4.2,2.3,5.7c1.5,1.5,3.4,2.3,5.7,2.3h23.7c2.3,0,4.2-0.8,5.7-2.3c1.5-1.5,2.3-3.4,2.3-5.7V20.1H89.2v19.9H70V10.5h29.5
    V0.2H67.7C65.5,0.2,63.5,0.9,62,2.5z M134,20.1h-19.1V0.2h-10.3v49.7h10.3V30H134v19.9h10.3V0.2H134V20.1z M148.9,0.2v10.3h10v39.4
    h2.3c2.3,0,4.2-0.8,5.7-2.3c1.5-1.5,2.3-3.4,2.3-5.7V10.5h10V0.2H148.9z"/>
  <path fill="#FFFFFF" d="M269.1,4h-23.7c-2.3,0-4.2,0.8-5.7,2.3c-1.5,1.5-2.3,3.4-2.3,5.7v33.7c0,2.3,0.8,4.2,2.3,5.7
    c1.5,1.5,3.4,2.3,5.7,2.3h23.7c2.3,0,4.2-0.8,5.7-2.3c1.5-1.5,2.3-3.4,2.3-5.7v-2.3h-29.5V14.3h29.5V12c0-2.3-0.8-4.2-2.3-5.7
    C273.3,4.8,271.4,4,269.1,4z M313.9,4h-23.7c-2.3,0-4.2,0.8-5.7,2.3c-1.5,1.5-2.3,3.4-2.3,5.7v2.3h29.9v9.6h-21.4
    c-2.3,0-4.2,0.8-5.7,2.3c-1.5,1.5-2.3,3.4-2.3,5.7v13.8c0,2.3,0.8,4.2,2.3,5.7c1.5,1.5,3.4,2.3,5.7,2.3h23.3c2.3,0,4.2-0.8,5.7-2.3
    s2.3-3.4,2.3-5.7V12c0-2.3-0.8-4.2-2.3-5.7C318.1,4.8,316.2,4,313.9,4z M311.6,43.4h-19.1v-9.6h19.1V43.4z M346.8,43.4h-10V12
    c0-2.3-0.8-4.2-2.3-5.7C333,4.8,331.1,4,328.8,4h-2.3v41.7c0,2.3,0.8,4.2,2.3,5.7c1.5,1.5,3.4,2.3,5.7,2.3h13.8
    c2.3,0,4.2-0.8,5.7-2.3c1.5-1.5,2.3-3.4,2.3-5.7v-2.3H346.8z M393.5,33.8c2.3,0,4.2-0.8,5.7-2.3s2.3-3.4,2.3-5.7V12
    c0-2.3-0.8-4.2-2.3-5.7c-1.5-1.5-3.4-2.3-5.7-2.3h-23.7c-2.3,0-4.2,0.8-5.7,2.3c-1.5,1.5-2.3,3.4-2.3,5.7v33.7
    c0,2.3,0.8,4.2,2.3,5.7c1.5,1.5,3.4,2.3,5.7,2.3h23.7c2.3,0,4.2-0.8,5.7-2.3s2.3-3.4,2.3-5.7v-2.3h-29.9v-9.6L393.5,33.8z
     M371.7,14.3h19.1v9.6h-19.1V14.3z M224.7,4h-23.7c-2.3,0-4.2,0.8-5.7,2.3c-1.5,1.5-2.3,3.4-2.3,5.7v13.8c0,2.3,0.8,4.2,2.3,5.7
    c1.5,1.5,3.4,2.3,5.7,2.3h21.4v9.6h-29.5v2.3c0,2.3,0.8,4.2,2.3,5.7c1.5,1.5,3.4,2.3,5.7,2.3h23.7c2.3,0,4.2-0.8,5.7-2.3
    s2.3-3.4,2.3-5.7V31.9c0-2.3-0.8-4.2-2.3-5.7c-1.5-1.5-3.4-2.3-5.7-2.3h-21.4v-9.6h29.9V12c0-2.3-0.8-4.2-2.3-5.7
    C228.9,4.8,226.6,4,224.7,4z M31.8,4H0v49.7h10.3v-9.9h19.1v1.9c0,2.3,0.8,4.2,2.3,5.7c1.9,1.5,3.8,2.3,5.7,2.3h2.3V41.9
    c0-2.3-0.8-4.2-2.3-5.7c-1.1-1.1-2.3-1.9-3.8-2.3c1.5-0.4,2.7-1.1,3.8-2.3c1.5-1.5,2.3-3.4,2.3-5.7V12c0-2.3-0.8-4.2-2.3-5.7
    C36,4.8,34.1,4,31.8,4z M29.5,33.4H10.3V14.3h19.1V33.4z M46.7,15.9h-2.3v37.9h10.3V24.3c0-2.3-0.8-4.2-2.3-5.7
    C50.9,16.6,49,15.9,46.7,15.9z M62,6.3c-1.5,1.5-2.3,3.4-2.3,5.7v33.7c0,2.3,0.8,4.2,2.3,5.7c1.5,1.5,3.4,2.3,5.7,2.3h23.7
    c2.3,0,4.2-0.8,5.7-2.3s2.3-3.4,2.3-5.7V23.9H89.2v19.9H70V14.3h29.5V4H67.7C65.5,4,63.5,4.8,62,6.3z M134,23.9h-19.1V4h-10.3v49.7
    h10.3V33.8H134v19.9h10.3V4H134V23.9z M148.9,4v10.3h10v39.4h2.3c2.3,0,4.2-0.8,5.7-2.3c1.5-1.5,2.3-3.4,2.3-5.7V14.3h10V4H148.9z"
    />
  <path opacity="0.25" enable-background="new    " d="M44.8,2.5c0,2.3,0.8,4.2,2.3,5.7c1.5,1.5,3.4,2.3,5.7,2.3h2.3V0.2H44.8V2.5z"
    />
  <path fill="#F3A02D" d="M44.8,6.3c0,2.3,0.8,4.2,2.3,5.7c1.5,1.5,3.4,2.3,5.7,2.3h2.3V4H44.8V6.3z"/>
</g>
<g>
  <path fill="#FFFFFF" d="M449.3,11.3c-2.4-1.6-5.2-2.5-8.4-2.5c-2.8,0-5.1,0.5-7.1,1.6c-2,1-3.6,2.4-4.9,4.2c-1.3,1.8-2.2,3.8-2.8,6
    c-0.6,2.3-0.9,4.6-0.9,7c0,2.6,0.3,5.1,0.9,7.5c0.6,2.4,1.5,4.4,2.8,6.2c1.3,1.8,2.9,3.2,4.9,4.2c2,1,4.4,1.6,7.2,1.6
    c2,0,3.8-0.3,5.4-1c1.6-0.7,2.9-1.6,4.1-2.8c1.1-1.2,2-2.6,2.7-4.3c0.7-1.6,1-3.4,1.2-5.3h6.2c-0.6,5.9-2.6,10.4-6,13.7
    c-3.4,3.3-8.1,4.9-14,4.9c-3.6,0-6.7-0.6-9.4-1.9c-2.7-1.2-4.9-2.9-6.7-5.1c-1.8-2.2-3.1-4.7-4-7.7c-0.9-2.9-1.3-6.1-1.3-9.5
    s0.5-6.6,1.4-9.5c1-3,2.4-5.6,4.2-7.8c1.8-2.2,4.1-4,6.9-5.2c2.8-1.3,5.9-1.9,9.5-1.9c2.4,0,4.7,0.3,6.9,1c2.2,0.7,4.1,1.6,5.8,2.9
    c1.7,1.3,3.1,2.8,4.2,4.7c1.1,1.9,1.9,4.1,2.2,6.5h-6.2C453.2,15.4,451.6,13,449.3,11.3z"/>
  <path fill="#FFFFFF" d="M473.1,4.8v46.4h-5.5V4.8H473.1z"/>
  <path fill="#FFFFFF" d="M480.9,27.5c0.7-2.1,1.7-4,3.1-5.6c1.4-1.6,3.1-2.8,5.1-3.7c2-0.9,4.4-1.4,7-1.4c2.7,0,5,0.5,7.1,1.4
    c2,0.9,3.7,2.2,5.1,3.7s2.4,3.4,3.1,5.6s1,4.5,1,6.9s-0.3,4.8-1,6.9c-0.7,2.1-1.7,4-3.1,5.6c-1.4,1.6-3.1,2.8-5.1,3.7
    c-2,0.9-4.4,1.3-7.1,1.3c-2.6,0-5-0.4-7-1.3c-2-0.9-3.8-2.1-5.1-3.7c-1.4-1.6-2.4-3.4-3.1-5.6c-0.7-2.1-1-4.4-1-6.9
    S480.2,29.6,480.9,27.5z M486.5,39.8c0.5,1.6,1.3,2.9,2.2,4c1,1.1,2.1,1.9,3.3,2.4c1.3,0.6,2.6,0.8,4.1,0.8s2.8-0.3,4.1-0.8
    c1.3-0.6,2.4-1.4,3.3-2.4c1-1.1,1.7-2.4,2.2-4c0.5-1.6,0.8-3.4,0.8-5.4c0-2-0.3-3.8-0.8-5.4c-0.5-1.6-1.3-2.9-2.2-4
    c-1-1.1-2.1-1.9-3.3-2.5c-1.3-0.6-2.6-0.8-4.1-0.8s-2.8,0.3-4.1,0.8c-1.3,0.6-2.4,1.4-3.3,2.5c-1,1.1-1.7,2.4-2.2,4
    c-0.5,1.6-0.8,3.4-0.8,5.4C485.7,36.5,486,38.3,486.5,39.8z"/>
  <path fill="#FFFFFF" d="M541.6,51.2v-5.3h-0.1c-1.2,2.1-2.7,3.6-4.5,4.6c-1.8,1-4,1.5-6.4,1.5c-2.2,0-4.1-0.3-5.5-0.9
    c-1.5-0.6-2.7-1.4-3.6-2.5c-0.9-1.1-1.6-2.4-1.9-3.9c-0.4-1.5-0.6-3.2-0.6-5V17.6h5.5v22.8c0,2.1,0.6,3.7,1.8,4.9
    c1.2,1.2,2.9,1.8,5,1.8c1.7,0,3.2-0.3,4.4-0.8c1.2-0.5,2.3-1.3,3.1-2.2c0.8-1,1.4-2.1,1.9-3.3c0.4-1.3,0.6-2.7,0.6-4.2v-19h5.5
    v33.6H541.6z"/>
  <path fill="#FFFFFF" d="M579.7,51.2v-4.6h-0.1c-0.9,1.9-2.3,3.2-4.3,4c-2,0.8-4.1,1.2-6.4,1.2c-2.6,0-4.9-0.5-6.8-1.4
    c-1.9-1-3.5-2.2-4.8-3.8c-1.3-1.6-2.2-3.5-2.9-5.6c-0.7-2.1-1-4.4-1-6.8s0.3-4.6,0.9-6.8c0.6-2.1,1.6-4,2.9-5.6
    c1.3-1.6,2.9-2.8,4.8-3.8c1.9-0.9,4.2-1.4,6.7-1.4c0.9,0,1.8,0.1,2.8,0.3c1,0.2,2,0.5,3,0.9c1,0.4,1.9,1,2.8,1.6
    c0.9,0.7,1.6,1.5,2.2,2.5h0.1V4.8h5.5v46.4H579.7z M559.8,39.3c0.4,1.5,1,2.8,1.9,4c0.8,1.2,1.9,2.1,3.3,2.8c1.3,0.7,2.9,1,4.6,1
    c1.9,0,3.4-0.4,4.7-1.1c1.3-0.7,2.4-1.7,3.2-2.9s1.4-2.5,1.8-4.1c0.4-1.5,0.6-3.1,0.6-4.6c0-1.6-0.2-3.2-0.6-4.8
    c-0.4-1.5-1-2.9-1.9-4.1c-0.8-1.2-1.9-2.1-3.3-2.8c-1.3-0.7-3-1.1-4.9-1.1c-1.9,0-3.4,0.4-4.7,1.1s-2.3,1.7-3.1,2.9
    s-1.3,2.6-1.7,4.2c-0.3,1.6-0.5,3.2-0.5,4.8C559.2,36.2,559.4,37.8,559.8,39.3z"/>
  <path fill="#FFFFFF" d="M640.8,11.3c-2.4-1.6-5.2-2.5-8.4-2.5c-2.8,0-5.1,0.5-7.1,1.6c-2,1-3.6,2.4-4.9,4.2c-1.3,1.8-2.2,3.8-2.8,6
    c-0.6,2.3-0.9,4.6-0.9,7c0,2.6,0.3,5.1,0.9,7.5c0.6,2.4,1.5,4.4,2.8,6.2c1.3,1.8,2.9,3.2,4.9,4.2c2,1,4.4,1.6,7.2,1.6
    c2,0,3.8-0.3,5.4-1c1.6-0.7,2.9-1.6,4.1-2.8c1.1-1.2,2-2.6,2.7-4.3c0.6-1.6,1-3.4,1.2-5.3h6.2c-0.6,5.9-2.6,10.4-6,13.7
    c-3.4,3.3-8.1,4.9-14,4.9c-3.6,0-6.7-0.6-9.4-1.9c-2.7-1.2-4.9-2.9-6.7-5.1c-1.8-2.2-3.1-4.7-4-7.7c-0.9-2.9-1.3-6.1-1.3-9.5
    s0.5-6.6,1.4-9.5c1-3,2.4-5.6,4.2-7.8s4.1-4,6.9-5.2c2.8-1.3,5.9-1.9,9.5-1.9c2.4,0,4.7,0.3,6.9,1c2.2,0.7,4.1,1.6,5.8,2.9
    c1.7,1.3,3.1,2.8,4.2,4.7c1.1,1.9,1.9,4.1,2.2,6.5h-6.2C644.6,15.4,643.1,13,640.8,11.3z"/>
  <path fill="#FFFFFF" d="M658,27.5c0.7-2.1,1.7-4,3.1-5.6c1.4-1.6,3.1-2.8,5.1-3.7c2-0.9,4.4-1.4,7-1.4c2.7,0,5,0.5,7.1,1.4
    c2,0.9,3.7,2.2,5.1,3.7c1.4,1.6,2.4,3.4,3.1,5.6c0.7,2.1,1,4.5,1,6.9s-0.3,4.8-1,6.9c-0.7,2.1-1.7,4-3.1,5.6
    c-1.4,1.6-3.1,2.8-5.1,3.7c-2,0.9-4.4,1.3-7.1,1.3c-2.6,0-5-0.4-7-1.3c-2-0.9-3.7-2.1-5.1-3.7c-1.4-1.6-2.4-3.4-3.1-5.6
    c-0.7-2.1-1-4.4-1-6.9S657.3,29.6,658,27.5z M663.6,39.8c0.5,1.6,1.3,2.9,2.2,4c1,1.1,2.1,1.9,3.3,2.4c1.3,0.6,2.6,0.8,4.1,0.8
    c1.4,0,2.8-0.3,4.1-0.8c1.3-0.6,2.4-1.4,3.3-2.4c1-1.1,1.7-2.4,2.2-4c0.5-1.6,0.8-3.4,0.8-5.4c0-2-0.3-3.8-0.8-5.4
    c-0.5-1.6-1.3-2.9-2.2-4c-1-1.1-2.1-1.9-3.3-2.5c-1.3-0.6-2.6-0.8-4.1-0.8c-1.4,0-2.8,0.3-4.1,0.8c-1.3,0.6-2.4,1.4-3.3,2.5
    c-1,1.1-1.7,2.4-2.2,4c-0.5,1.6-0.8,3.4-0.8,5.4C662.8,36.5,663,38.3,663.6,39.8z"/>
  <path fill="#FFFFFF" d="M701.3,17.6v4.9h0.1c2.5-3.8,6.1-5.7,10.9-5.7c2.1,0,4,0.4,5.7,1.3c1.7,0.9,2.9,2.3,3.6,4.4
    c1.1-1.8,2.6-3.2,4.5-4.2c1.8-1,3.9-1.5,6.1-1.5c1.7,0,3.2,0.2,4.6,0.6c1.4,0.4,2.5,0.9,3.5,1.7c1,0.8,1.7,1.8,2.3,3
    c0.5,1.2,0.8,2.7,0.8,4.5v24.6h-5.5v-22c0-1-0.1-2-0.3-2.9c-0.2-0.9-0.5-1.7-1-2.4c-0.5-0.7-1.1-1.2-2-1.6
    c-0.8-0.4-1.9-0.6-3.3-0.6c-2.7,0-4.9,0.8-6.4,2.3c-1.6,1.6-2.3,3.6-2.3,6.2v20.9h-5.5v-22c0-1.1-0.1-2.1-0.3-3
    c-0.2-0.9-0.5-1.7-1-2.4c-0.5-0.7-1.1-1.2-1.9-1.6c-0.8-0.4-1.8-0.6-3.1-0.6c-1.6,0-3,0.3-4.1,1c-1.1,0.7-2.1,1.4-2.8,2.3
    c-0.7,0.9-1.2,1.9-1.6,2.8c-0.3,1-0.5,1.8-0.5,2.4v20.9h-5.5V17.6H701.3z"/>
  <path fill="#FFFFFF" d="M757.2,17.6v4.6h0.1c0.9-1.9,2.3-3.2,4.3-4.1c2-0.8,4.1-1.3,6.4-1.3c2.6,0,4.9,0.5,6.8,1.4
    c1.9,1,3.5,2.2,4.8,3.9c1.3,1.6,2.2,3.5,2.9,5.6c0.7,2.1,1,4.4,1,6.8c0,2.4-0.3,4.6-0.9,6.8c-0.6,2.1-1.6,4-2.9,5.6
    c-1.3,1.6-2.9,2.8-4.8,3.7c-1.9,0.9-4.2,1.4-6.7,1.4c-0.8,0-1.7-0.1-2.8-0.3c-1-0.2-2-0.5-3-0.8c-1-0.4-1.9-0.9-2.8-1.6
    c-0.9-0.7-1.6-1.5-2.2-2.5h-0.1V64h-5.5V17.6H757.2z M777.1,29.5c-0.4-1.5-1-2.8-1.9-4c-0.8-1.2-1.9-2.1-3.3-2.8
    c-1.3-0.7-2.9-1-4.6-1c-1.9,0-3.4,0.4-4.7,1.1c-1.3,0.7-2.4,1.7-3.2,2.9c-0.8,1.2-1.4,2.5-1.8,4.1c-0.4,1.5-0.6,3.1-0.6,4.6
    c0,1.6,0.2,3.2,0.6,4.8c0.4,1.5,1,2.9,1.9,4.1c0.8,1.2,1.9,2.1,3.3,2.8c1.3,0.7,3,1.1,4.9,1.1c1.9,0,3.5-0.4,4.8-1.1
    c1.3-0.7,2.3-1.7,3.1-2.9c0.8-1.2,1.3-2.6,1.7-4.2c0.3-1.6,0.5-3.2,0.5-4.8C777.7,32.5,777.5,31,777.1,29.5z"/>
  <path fill="#FFFFFF" d="M819.9,51.1c-1,0.6-2.3,0.8-4,0.8c-1.4,0-2.6-0.4-3.4-1.2c-0.8-0.8-1.3-2.1-1.3-3.9
    c-1.5,1.8-3.3,3.1-5.3,3.9c-2,0.8-4.2,1.2-6.5,1.2c-1.5,0-3-0.2-4.3-0.5c-1.4-0.3-2.5-0.9-3.5-1.6s-1.8-1.7-2.4-2.9
    c-0.6-1.2-0.9-2.6-0.9-4.3c0-1.9,0.3-3.5,1-4.7c0.6-1.2,1.5-2.2,2.6-3c1.1-0.8,2.3-1.3,3.6-1.7c1.4-0.4,2.8-0.7,4.2-1
    c1.5-0.3,3-0.5,4.3-0.7c1.4-0.2,2.6-0.4,3.6-0.6c1-0.3,1.9-0.7,2.5-1.2c0.6-0.5,0.9-1.3,0.9-2.4c0-1.2-0.2-2.2-0.7-2.9
    c-0.5-0.7-1-1.3-1.8-1.7c-0.7-0.4-1.5-0.6-2.4-0.8c-0.9-0.1-1.8-0.2-2.6-0.2c-2.3,0-4.3,0.4-5.9,1.3c-1.6,0.9-2.4,2.6-2.5,5h-5.5
    c0.1-2.1,0.5-3.8,1.3-5.3c0.8-1.4,1.8-2.6,3.1-3.5c1.3-0.9,2.8-1.5,4.5-1.9c1.7-0.4,3.5-0.6,5.4-0.6c1.5,0,3,0.1,4.5,0.3
    c1.5,0.2,2.9,0.7,4.1,1.3c1.2,0.7,2.2,1.6,2.9,2.8c0.7,1.2,1.1,2.8,1.1,4.7v17.3c0,1.3,0.1,2.2,0.2,2.9c0.2,0.6,0.7,0.9,1.5,0.9
    c0.5,0,1-0.1,1.7-0.3V51.1z M810.9,33.8c-0.7,0.5-1.6,0.9-2.7,1.1c-1.1,0.2-2.3,0.4-3.5,0.6c-1.2,0.2-2.5,0.3-3.7,0.5
    c-1.3,0.2-2.4,0.5-3.4,0.9c-1,0.4-1.8,1-2.4,1.8c-0.6,0.8-0.9,1.9-0.9,3.3c0,0.9,0.2,1.7,0.6,2.3c0.4,0.6,0.8,1.1,1.4,1.5
    c0.6,0.4,1.3,0.7,2,0.8c0.8,0.2,1.6,0.3,2.5,0.3c1.8,0,3.4-0.2,4.7-0.7c1.3-0.5,2.4-1.1,3.2-1.9c0.8-0.8,1.4-1.6,1.8-2.5
    c0.4-0.9,0.6-1.7,0.6-2.5V33.8z"/>
  <path fill="#FFFFFF" d="M830,17.6v7.1h0.1c1.3-2.7,3-4.7,4.9-6c2-1.3,4.4-1.9,7.4-1.8v5.9c-2.2,0-4.1,0.3-5.7,0.9
    c-1.6,0.6-2.8,1.5-3.8,2.7c-1,1.2-1.6,2.6-2.1,4.3c-0.4,1.7-0.7,3.6-0.7,5.8v15h-5.5V17.6H830z"/>
  <path fill="#FFFFFF" d="M847,11.5V4.8h5.5v6.8H847z M852.5,17.6v33.6H847V17.6H852.5z"/>
  <path fill="#FFFFFF" d="M865.3,43.7c0.5,0.8,1.2,1.5,2,2c0.8,0.5,1.8,0.9,2.9,1.1c1.1,0.2,2.2,0.3,3.3,0.3c0.9,0,1.8-0.1,2.7-0.2
    c1-0.1,1.8-0.4,2.6-0.7c0.8-0.3,1.5-0.9,2-1.5c0.5-0.7,0.8-1.5,0.8-2.6c0-1.4-0.5-2.5-1.6-3.3c-1.1-0.7-2.4-1.3-4.1-1.8
    c-1.6-0.5-3.4-0.9-5.3-1.2c-1.9-0.4-3.7-0.9-5.3-1.6c-1.6-0.7-3-1.6-4.1-2.8c-1.1-1.2-1.6-2.9-1.6-5.1c0-1.7,0.4-3.1,1.1-4.4
    c0.8-1.2,1.7-2.2,2.9-3c1.2-0.8,2.5-1.3,4-1.7c1.5-0.4,3-0.6,4.5-0.6c1.9,0,3.7,0.2,5.3,0.5c1.6,0.3,3,0.9,4.3,1.7
    c1.2,0.8,2.2,1.9,3,3.3c0.7,1.4,1.2,3.1,1.3,5.1h-5.5c-0.1-1.1-0.4-2-0.8-2.7c-0.5-0.7-1.1-1.3-1.8-1.7c-0.7-0.4-1.6-0.7-2.4-0.9
    c-0.9-0.2-1.8-0.3-2.7-0.3c-0.8,0-1.7,0.1-2.5,0.2c-0.8,0.1-1.6,0.4-2.3,0.7c-0.7,0.3-1.3,0.8-1.7,1.3c-0.4,0.5-0.6,1.2-0.6,2.1
    c0,1,0.3,1.7,1,2.4c0.7,0.6,1.5,1.1,2.6,1.6c1,0.4,2.2,0.8,3.5,1c1.3,0.3,2.6,0.6,3.9,0.9c1.4,0.3,2.7,0.7,4.1,1.1
    c1.3,0.4,2.5,1,3.5,1.7c1,0.7,1.8,1.6,2.5,2.7c0.6,1.1,0.9,2.4,0.9,4c0,2-0.4,3.7-1.3,5.1c-0.8,1.3-2,2.4-3.3,3.3
    c-1.4,0.8-2.9,1.4-4.6,1.7c-1.7,0.3-3.4,0.5-5.1,0.5c-1.9,0-3.6-0.2-5.3-0.6c-1.7-0.4-3.2-1-4.5-1.9c-1.3-0.9-2.3-2.1-3.1-3.5
    c-0.8-1.5-1.2-3.2-1.3-5.3h5.5C864.5,41.8,864.8,42.8,865.3,43.7z"/>
  <path fill="#FFFFFF" d="M892.8,27.5c0.7-2.1,1.7-4,3.1-5.6c1.4-1.6,3.1-2.8,5.1-3.7c2-0.9,4.4-1.4,7-1.4c2.7,0,5,0.5,7.1,1.4
    c2,0.9,3.7,2.2,5.1,3.7c1.4,1.6,2.4,3.4,3.1,5.6c0.7,2.1,1,4.5,1,6.9s-0.3,4.8-1,6.9c-0.7,2.1-1.7,4-3.1,5.6
    c-1.4,1.6-3.1,2.8-5.1,3.7c-2,0.9-4.4,1.3-7.1,1.3c-2.6,0-5-0.4-7-1.3c-2-0.9-3.8-2.1-5.1-3.7c-1.4-1.6-2.4-3.4-3.1-5.6
    c-0.7-2.1-1-4.4-1-6.9S892.1,29.6,892.8,27.5z M898.4,39.8c0.5,1.6,1.3,2.9,2.2,4c1,1.1,2.1,1.9,3.3,2.4c1.3,0.6,2.6,0.8,4.1,0.8
    c1.4,0,2.8-0.3,4.1-0.8c1.3-0.6,2.4-1.4,3.3-2.4c1-1.1,1.7-2.4,2.2-4c0.5-1.6,0.8-3.4,0.8-5.4c0-2-0.3-3.8-0.8-5.4
    c-0.5-1.6-1.3-2.9-2.2-4c-1-1.1-2.1-1.9-3.3-2.5c-1.3-0.6-2.6-0.8-4.1-0.8c-1.4,0-2.8,0.3-4.1,0.8c-1.3,0.6-2.4,1.4-3.3,2.5
    c-1,1.1-1.7,2.4-2.2,4c-0.5,1.6-0.8,3.4-0.8,5.4C897.6,36.5,897.9,38.3,898.4,39.8z"/>
  <path fill="#FFFFFF" d="M936.1,17.6v5.3h0.1c2.3-4.1,5.9-6.1,10.9-6.1c2.2,0,4.1,0.3,5.5,0.9c1.5,0.6,2.7,1.5,3.6,2.5
    c0.9,1.1,1.5,2.4,1.9,3.9c0.4,1.5,0.6,3.2,0.6,5v22.1h-5.5V28.4c0-2.1-0.6-3.7-1.8-4.9c-1.2-1.2-2.9-1.8-5-1.8
    c-1.7,0-3.2,0.3-4.4,0.8c-1.2,0.5-2.3,1.3-3.1,2.2s-1.4,2.1-1.9,3.3c-0.4,1.3-0.6,2.7-0.6,4.2v19h-5.5V17.6H936.1z"/>
</g>
</svg>
